<svg id="svg" xmlns="http://www.w3.org/2000/svg" xmlns:xlink="http://www.w3.org/1999/xlink" viewBox="0 0 400 400"><g id="svgg"><path fill="currentColor" id="path0" d="M177.504 71.226 C 114.592 82.311,69.600 136.005,69.600 200.000 C 69.600 272.733,127.119 330.400,199.664 330.400 C 211.772 330.400,211.976 330.429,212.373 332.200 C 212.595 333.190,214.593 344.357,216.814 357.015 C 222.679 390.455,222.989 390.800,242.816 386.075 C 328.218 365.721,392.433 287.000,390.267 205.315 L 390.000 195.226 387.386 192.613 L 384.771 190.000 357.529 189.770 C 323.073 189.478,322.979 189.058,356.058 183.188 C 382.873 178.430,384.041 178.083,386.440 174.149 C 390.817 166.971,380.596 131.179,367.789 108.833 C 360.319 95.800,359.057 95.929,330.000 112.711 L 307.600 125.649 306.400 123.826 C 280.977 85.205,225.848 62.708,177.504 71.226 M218.297 81.261 C 297.599 93.025,343.044 179.746,307.979 252.400 C 264.618 342.246,135.382 342.246,92.021 252.400 C 50.025 165.384,122.573 67.062,218.297 81.261 M360.866 118.531 C 367.787 132.323,373.105 147.244,376.449 162.256 C 378.056 169.470,380.993 168.077,354.268 172.780 C 325.253 177.887,328.617 178.296,326.450 169.400 C 324.172 160.044,319.931 148.531,315.916 140.800 C 314.201 137.500,313.069 134.702,313.399 134.583 C 313.730 134.463,323.180 129.001,334.400 122.446 C 345.620 115.890,355.247 110.498,355.793 110.463 C 356.339 110.428,358.622 114.059,360.866 118.531 M182.663 132.375 C 131.068 145.712,112.849 209.506,149.558 248.294 C 186.974 287.829,254.217 270.036,267.660 217.043 C 280.598 166.038,233.590 119.211,182.663 132.375 M213.909 142.377 C 250.470 151.727,269.606 191.663,253.598 225.203 C 232.062 270.329,167.938 270.329,146.402 225.203 C 125.249 180.881,166.511 130.254,213.909 142.377 M380.000 207.572 C 380.000 267.898,339.723 331.043,282.612 360.256 C 266.416 368.541,233.610 379.476,231.445 377.312 C 231.003 376.870,222.293 328.565,222.624 328.395 C 222.721 328.345,226.682 327.342,231.426 326.166 C 286.660 312.470,329.600 260.391,329.600 207.095 L 329.600 200.000 354.800 200.000 L 380.000 200.000 380.000 207.572 " stroke="none" fill-rule="evenodd"></path></g></svg>
