<svg xmlns="http://www.w3.org/2000/svg"  viewBox="0 0 50 50"><path fill="currentColor" d="M 13 2 C 9.6875 2 7 4.6875 7 8 L 7 34 C 7 37.3125 9.6875 40 13 40 L 28 40 L 28 48 L 36 40 L 37 40 C 40.3125 40 43 37.3125 43 34 L 43 8 C 43 4.6875 40.3125 2 37 2 Z M 13 4 L 37 4 C 39.207031 4 41 5.792969 41 8 L 41 10 L 9 10 L 9 8 C 9 5.792969 10.792969 4 13 4 Z M 9 12 L 41 12 L 41 20 L 9 20 Z M 9 22 L 41 22 L 41 30 L 9 30 Z M 9 32 L 41 32 L 41 34 C 41 36.207031 39.207031 38 37 38 L 35.171875 38 L 30 43.171875 L 30 38 L 13 38 C 10.792969 38 9 36.207031 9 34 Z"/></svg>
